<svg width="18" height="18" viewBox="0 0 18 18" fill="none" xmlns="http://www.w3.org/2000/svg">
<path d="M9.54602 9.78599L12.246 8.31899C12.3295 8.26695 12.4019 8.19893 12.459 8.11883C12.5162 8.03873 12.5569 7.94813 12.579 7.85224C12.601 7.75635 12.6038 7.65705 12.5874 7.56005C12.5709 7.46304 12.5354 7.37025 12.483 7.28699C12.3778 7.11848 12.2101 6.99857 12.0166 6.95358C11.8232 6.90858 11.6198 6.94218 11.451 7.04699L8.75102 8.51399C8.66727 8.56579 8.5946 8.63364 8.53717 8.71363C8.47974 8.79362 8.43869 8.88417 8.41639 8.98008C8.39408 9.07599 8.39096 9.17536 8.4072 9.27248C8.42344 9.36961 8.45872 9.46256 8.51102 9.54599C8.56282 9.63015 8.63081 9.70318 8.71104 9.76088C8.79127 9.81857 8.88214 9.85977 8.97841 9.88209C9.07467 9.90441 9.17441 9.90741 9.27184 9.89092C9.36927 9.87442 9.46247 9.83876 9.54602 9.78599Z" fill="#33447C"/>
<path d="M9 1.5C7.51664 1.5 6.0666 1.93987 4.83323 2.76398C3.59986 3.58809 2.63856 4.75943 2.07091 6.12987C1.50325 7.50032 1.35472 9.00832 1.64411 10.4632C1.9335 11.918 2.64781 13.2544 3.6967 14.3033C4.7456 15.3522 6.08197 16.0665 7.53683 16.3559C8.99168 16.6453 10.4997 16.4968 11.8701 15.9291C13.2406 15.3614 14.4119 14.4001 15.236 13.1668C16.0601 11.9334 16.5 10.4834 16.5 9C16.5 7.01088 15.7098 5.10322 14.3033 3.6967C12.8968 2.29018 10.9891 1.5 9 1.5V1.5ZM9 15C7.81332 15 6.65328 14.6481 5.66658 13.9888C4.67989 13.3295 3.91085 12.3925 3.45673 11.2961C3.0026 10.1997 2.88378 8.99334 3.11529 7.82946C3.3468 6.66557 3.91825 5.59647 4.75736 4.75736C5.59648 3.91824 6.66558 3.3468 7.82946 3.11529C8.99335 2.88378 10.1997 3.0026 11.2961 3.45672C12.3925 3.91085 13.3295 4.67988 13.9888 5.66658C14.6481 6.65327 15 7.81331 15 9C15 10.5913 14.3679 12.1174 13.2426 13.2426C12.1174 14.3679 10.5913 15 9 15Z" fill="#33447C"/>
<path d="M6.54595 5.60999C6.39825 5.48394 6.20741 5.42008 6.01359 5.43186C5.81977 5.44364 5.63807 5.53013 5.50672 5.67315C5.37536 5.81616 5.3046 6.00454 5.3093 6.19866C5.31401 6.39279 5.39382 6.57752 5.53195 6.71399L8.64295 9.71399C8.71465 9.78483 8.79989 9.8405 8.89359 9.87766C8.98728 9.91481 9.0875 9.93271 9.18826 9.93026C9.28902 9.92782 9.38826 9.90509 9.48004 9.86343C9.57182 9.82178 9.65427 9.76205 9.72245 9.68782C9.79063 9.61359 9.84315 9.52637 9.87687 9.43139C9.91059 9.3364 9.92481 9.2356 9.9187 9.13499C9.91259 9.03438 9.88626 8.93604 9.84129 8.84584C9.79631 8.75564 9.73362 8.67542 9.65695 8.60999L6.54595 5.60999Z" fill="#33447C"/>
</svg>
