<svg width="13" height="13" viewBox="0 0 13 13" fill="none" xmlns="http://www.w3.org/2000/svg">
<path d="M11.8794 12.38C11.7556 12.5019 11.5892 12.5702 11.4159 12.5702C11.2425 12.5702 11.0761 12.5019 10.9524 12.38L7.64156 9.07075L7.17775 8.60746C7.06105 8.48288 6.99731 8.31751 7.00009 8.14649C7.00286 7.97547 7.07192 7.81227 7.19261 7.69157C7.31329 7.57086 7.47608 7.50216 7.6464 7.50005C7.81672 7.49794 7.98115 7.5626 8.10475 7.68028L8.56856 8.14356L11.8794 11.451C12.002 11.5742 12.0709 11.7413 12.0709 11.9155C12.0709 12.0897 12.002 12.2568 11.8794 12.38Z" fill="#33447C"/>
<path d="M11.8087 0.69095C11.6849 0.569038 11.5185 0.500742 11.3452 0.500742C11.1718 0.500742 11.0054 0.569038 10.8817 0.69095L5.99916 5.57232L1.11972 0.69095C0.996217 0.568598 0.829705 0.5 0.656216 0.5C0.482728 0.5 0.316216 0.568598 0.192715 0.69095C0.0706555 0.814105 0.00213194 0.980788 0.00213194 1.15454C0.00213194 1.32829 0.0706555 1.49498 0.192715 1.61813L5.07277 6.4995L0.192104 11.3809C0.131226 11.4416 0.0829116 11.5138 0.0499424 11.5934C0.0169731 11.673 0 11.7583 0 11.8445C0 11.9306 0.0169731 12.016 0.0499424 12.0955C0.0829116 12.1751 0.131226 12.2473 0.192104 12.3081C0.315294 12.431 0.481922 12.5 0.655605 12.5C0.829288 12.5 0.995916 12.431 1.11911 12.3081L11.8087 1.62304C11.8693 1.56218 11.9174 1.48991 11.9503 1.41037C11.9831 1.33082 12 1.24556 12 1.15945C12 1.07334 11.9831 0.988081 11.9503 0.908535C11.9174 0.828989 11.8693 0.75672 11.8087 0.695859V0.69095Z" fill="#33447C"/>
</svg>
