<svg width="24" height="24" viewBox="0 0 24 24" fill="none" xmlns="http://www.w3.org/2000/svg">
<path d="M18.2 8.85718H21C21.2652 8.85718 21.5196 8.75057 21.7071 8.5608C21.8946 8.37103 22 8.11365 22 7.84528C22 7.5769 21.8946 7.31952 21.7071 7.12975C21.5196 6.93999 21.2652 6.83337 21 6.83337H18.2C17.9348 6.83337 17.6804 6.93999 17.4929 7.12975C17.3054 7.31952 17.2 7.5769 17.2 7.84528C17.2 8.11365 17.3054 8.37103 17.4929 8.5608C17.6804 8.75057 17.9348 8.85718 18.2 8.85718ZM8.2 6.83337H3C2.73478 6.83337 2.48043 6.93999 2.29289 7.12975C2.10536 7.31952 2 7.5769 2 7.84528C2 8.11365 2.10536 8.37103 2.29289 8.5608C2.48043 8.75057 2.73478 8.85718 3 8.85718H8.2C8.46522 8.85718 8.71957 8.75057 8.90711 8.5608C9.09464 8.37103 9.2 8.11365 9.2 7.84528C9.2 7.5769 9.09464 7.31952 8.90711 7.12975C8.71957 6.93999 8.46522 6.83337 8.2 6.83337ZM5.8 16.1429H3C2.73478 16.1429 2.48043 16.2495 2.29289 16.4393C2.10536 16.629 2 16.8864 2 17.1548C2 17.4232 2.10536 17.6806 2.29289 17.8703C2.48043 18.0601 2.73478 18.1667 3 18.1667H5.8C6.06522 18.1667 6.31957 18.0601 6.50711 17.8703C6.69464 17.6806 6.8 17.4232 6.8 17.1548C6.8 16.8864 6.69464 16.629 6.50711 16.4393C6.31957 16.2495 6.06522 16.1429 5.8 16.1429ZM21 16.1429H15.8C15.5348 16.1429 15.2804 16.2495 15.0929 16.4393C14.9054 16.629 14.8 16.8864 14.8 17.1548C14.8 17.4232 14.9054 17.6806 15.0929 17.8703C15.2804 18.0601 15.5348 18.1667 15.8 18.1667H21C21.2652 18.1667 21.5196 18.0601 21.7071 17.8703C21.8946 17.6806 22 17.4232 22 17.1548C22 16.8864 21.8946 16.629 21.7071 16.4393C21.5196 16.2495 21.2652 16.1429 21 16.1429Z" fill="#33447C"/>
<path d="M9.4 13.3095C8.64843 13.3095 7.91374 13.535 7.28883 13.9576C6.66393 14.3801 6.17687 14.9806 5.88926 15.6833C5.60164 16.3859 5.52639 17.159 5.67302 17.9049C5.81964 18.6508 6.18156 19.336 6.71299 19.8738C7.24443 20.4115 7.92153 20.7777 8.65866 20.9261C9.39579 21.0745 10.1598 20.9983 10.8542 20.7073C11.5486 20.4163 12.142 19.9234 12.5596 19.2911C12.9771 18.6587 13.2 17.9153 13.2 17.1548C13.2 16.1349 12.7996 15.1569 12.087 14.4358C11.3744 13.7146 10.4078 13.3095 9.4 13.3095ZM9.4 18.9762C9.04399 18.9762 8.69598 18.8694 8.39997 18.6692C8.10397 18.4691 7.87326 18.1846 7.73702 17.8518C7.60078 17.519 7.56513 17.1527 7.63459 16.7994C7.70404 16.4461 7.87547 16.1215 8.12721 15.8668C8.37894 15.6121 8.69967 15.4386 9.04884 15.3683C9.398 15.2981 9.75992 15.3341 10.0888 15.472C10.4177 15.6098 10.6989 15.8433 10.8966 16.1428C11.0944 16.4424 11.2 16.7945 11.2 17.1548C11.1989 17.6375 11.009 18.1002 10.6716 18.4415C10.3343 18.7829 9.87707 18.9751 9.4 18.9762ZM14.6 4C13.8484 4 13.1137 4.22552 12.4888 4.64804C11.8639 5.07056 11.3769 5.6711 11.0893 6.37373C10.8016 7.07635 10.7264 7.8495 10.873 8.59541C11.0196 9.34131 11.3816 10.0265 11.913 10.5642C12.4444 11.102 13.1215 11.4682 13.8587 11.6166C14.5958 11.765 15.3598 11.6888 16.0542 11.3978C16.7486 11.1067 17.342 10.6139 17.7596 9.98154C18.1771 9.34919 18.4 8.60575 18.4 7.84524C18.4 7.34027 18.3017 6.84026 18.1107 6.37373C17.9198 5.9072 17.6399 5.48331 17.287 5.12624C16.9341 4.76918 16.5152 4.48594 16.0542 4.2927C15.5932 4.09946 15.099 4 14.6 4ZM14.6 9.66667C14.244 9.66667 13.896 9.55984 13.6 9.3597C13.304 9.15956 13.0733 8.87509 12.937 8.54227C12.8008 8.20945 12.7651 7.84322 12.8346 7.48989C12.904 7.13657 13.0755 6.81203 13.3272 6.55729C13.5789 6.30256 13.8997 6.12909 14.2488 6.05881C14.598 5.98853 14.9599 6.0246 15.2888 6.16246C15.6177 6.30032 15.8989 6.53377 16.0966 6.83331C16.2944 7.13284 16.4 7.48499 16.4 7.84524C16.3989 8.32798 16.209 8.79065 15.8716 9.132C15.5343 9.47335 15.0771 9.6656 14.6 9.66667Z" fill="#33447C"/>
</svg>
