<svg width="24" height="24" viewBox="0 0 24 24" fill="none" xmlns="http://www.w3.org/2000/svg">
<path d="M17.9557 12C17.7164 12.0353 17.4978 12.1624 17.3414 12.3572C17.1851 12.5519 17.1021 12.8007 17.1081 13.056V19.488C17.1081 19.6238 17.0571 19.754 16.9663 19.85C16.8754 19.9461 16.7522 20 16.6238 20H7.37622C7.24777 20 7.12458 19.9461 7.03375 19.85C6.94292 19.754 6.89189 19.6238 6.89189 19.488V4.512C6.89189 4.37621 6.94292 4.24598 7.03375 4.14996C7.12458 4.05394 7.24777 4 7.37622 4H13.2751C13.3117 3.99994 13.3478 4.00939 13.3801 4.02753C13.4125 4.04567 13.4401 4.07193 13.4605 4.104L16.2568 8.4H13.7027V7.056C13.7087 6.80067 13.6257 6.55192 13.4694 6.35717C13.3131 6.16242 13.0944 6.03528 12.8551 6C12.7229 5.98538 12.5892 6.00039 12.4629 6.04406C12.3365 6.08773 12.2202 6.15906 12.1217 6.25342C12.0232 6.34778 11.9445 6.46304 11.891 6.59168C11.8374 6.72032 11.8101 6.85945 11.8108 7V9.26C11.8118 9.56202 11.9257 9.85137 12.1278 10.0649C12.3298 10.2785 12.6035 10.3989 12.8892 10.4H18.02C18.2302 10.4043 18.436 10.3359 18.6061 10.2052C18.7762 10.0746 18.9012 9.88872 18.9622 9.676C19.0056 9.52061 19.0117 9.35624 18.98 9.19772C18.9483 9.0392 18.8797 8.89152 18.7805 8.768L14.6789 2.444V2.42L14.6146 2.364C14.594 2.3342 14.5712 2.30612 14.5465 2.28C14.5194 2.25701 14.4903 2.23691 14.4595 2.22C14.442 2.1985 14.423 2.17844 14.4027 2.16L14.3195 2.112L14.24 2.072L14.1492 2.044C14.1274 2.03337 14.1046 2.02532 14.0811 2.02C14.0459 2.01587 14.0103 2.01587 13.9751 2.02L13.8919 2H7.01676C6.48188 2 5.96891 2.22462 5.59069 2.62445C5.21248 3.02428 5 3.56656 5 4.132L5 19.868C5 20.4334 5.21248 20.9757 5.59069 21.3756C5.96891 21.7754 6.48188 22 7.01676 22H16.9832C17.5181 22 18.0311 21.7754 18.4093 21.3756C18.7875 20.9757 19 20.4334 19 19.868V13C19.0007 12.8594 18.9734 12.7203 18.9198 12.5917C18.8663 12.463 18.7877 12.3478 18.6891 12.2534C18.5906 12.1591 18.4743 12.0877 18.3479 12.0441C18.2216 12.0004 18.0879 11.9854 17.9557 12Z" fill="#33447C"/>
<path d="M9.72973 12.4C9.47885 12.4 9.23824 12.5054 9.06084 12.6929C8.88344 12.8804 8.78378 13.1348 8.78378 13.4C8.78378 13.6652 8.88344 13.9196 9.06084 14.1071C9.23824 14.2946 9.47885 14.4 9.72973 14.4H14.2703C14.5212 14.4 14.7618 14.2946 14.9392 14.1071C15.1166 13.9196 15.2162 13.6652 15.2162 13.4C15.2162 13.1348 15.1166 12.8804 14.9392 12.6929C14.7618 12.5054 14.5212 12.4 14.2703 12.4H9.72973Z" fill="#33447C"/>
<path d="M12.3784 16H9.72973C9.2073 16 8.78378 16.4477 8.78378 17C8.78378 17.5523 9.2073 18 9.72973 18H12.3784C12.9008 18 13.3243 17.5523 13.3243 17C13.3243 16.4477 12.9008 16 12.3784 16Z" fill="#33447C"/>
</svg>
