<svg width="48" height="48" viewBox="0 0 48 48" fill="none" xmlns="http://www.w3.org/2000/svg">
<path d="M35.7562 24C35.2839 24.0697 34.8523 24.3206 34.5438 24.705C34.2352 25.0895 34.0713 25.5805 34.0832 26.0845V38.781C34.0832 39.049 33.9825 39.3061 33.8032 39.4957C33.6239 39.6852 33.3807 39.7917 33.1271 39.7917H14.8728C14.6193 39.7917 14.3761 39.6852 14.1968 39.4957C14.0175 39.3061 13.9168 39.049 13.9168 38.781V9.219C13.9168 8.95096 14.0175 8.69389 14.1968 8.50435C14.3761 8.31482 14.6193 8.20833 14.8728 8.20833H26.5171C26.5893 8.20822 26.6605 8.22688 26.7243 8.26268C26.7881 8.29848 26.8426 8.35031 26.883 8.41363L32.4027 16.8938H27.3611V14.2408C27.373 13.7367 27.209 13.2457 26.9005 12.8613C26.5919 12.4769 26.1603 12.2259 25.688 12.1563C25.427 12.1274 25.1631 12.157 24.9137 12.2432C24.6642 12.3294 24.4347 12.4702 24.2402 12.6565C24.0457 12.8428 23.8905 13.0703 23.7848 13.3242C23.679 13.5781 23.6251 13.8528 23.6265 14.1302V18.5914C23.6285 19.1875 23.8534 19.7587 24.2522 20.1803C24.651 20.6018 25.1913 20.8396 25.7552 20.8417H35.8832C36.2982 20.8502 36.7044 20.7152 37.0401 20.4572C37.3758 20.1993 37.6226 19.8324 37.743 19.4125C37.8287 19.1058 37.8408 18.7813 37.7782 18.4684C37.7156 18.1555 37.5803 17.864 37.3845 17.6202L29.2881 5.13686V5.08948L29.1611 4.97894C29.1203 4.92012 29.0754 4.86469 29.0266 4.81313C28.9732 4.76775 28.9157 4.72808 28.8549 4.69469C28.8204 4.65225 28.783 4.61266 28.7428 4.57625L28.5785 4.4815L28.4217 4.40254L28.2424 4.34727C28.1994 4.32629 28.1543 4.3104 28.108 4.2999C28.0385 4.29175 27.9683 4.29175 27.8988 4.2999L27.7345 4.26042H14.1633C13.1075 4.26042 12.0949 4.70381 11.3483 5.49305C10.6017 6.2823 10.1823 7.35274 10.1823 8.4689L10.1823 39.5311C10.1823 40.6473 10.6017 41.7177 11.3483 42.507C12.0949 43.2962 13.1075 43.7396 14.1633 43.7396H33.8367C34.8925 43.7396 35.9051 43.2962 36.6517 42.507C37.3983 41.7177 37.8177 40.6473 37.8177 39.5311V25.974C37.8191 25.6965 37.7652 25.4219 37.6595 25.1679C37.5537 24.914 37.3985 24.6865 37.204 24.5002C37.0095 24.314 36.78 24.1732 36.5306 24.087C36.2811 24.0008 36.0173 23.9711 35.7562 24Z" fill="#33447C"/>
<path d="M19.5187 24.7896C19.0235 24.7896 18.5486 24.9976 18.1984 25.3678C17.8482 25.738 17.6515 26.2401 17.6515 26.7636C17.6515 27.2871 17.8482 27.7892 18.1984 28.1594C18.5486 28.5296 19.0235 28.7375 19.5187 28.7375H28.4816C28.9768 28.7375 29.4518 28.5296 29.8019 28.1594C30.1521 27.7892 30.3488 27.2871 30.3488 26.7636C30.3488 26.2401 30.1521 25.738 29.8019 25.3678C29.4518 24.9976 28.9768 24.7896 28.4816 24.7896H19.5187Z" fill="#33447C"/>
<path d="M24.7471 31.8958H19.5187C18.4875 31.8958 17.6515 32.7795 17.6515 33.8697C17.6515 34.9599 18.4875 35.8437 19.5187 35.8437H24.7471C25.7783 35.8437 26.6143 34.9599 26.6143 33.8697C26.6143 32.7795 25.7783 31.8958 24.7471 31.8958Z" fill="#ECECEC"/>
</svg>
