<svg width="18" height="18" viewBox="0 0 18 18" fill="none" xmlns="http://www.w3.org/2000/svg">
<path d="M14.076 3H13.5V2.25C13.5 2.05109 13.421 1.86032 13.2803 1.71967C13.1397 1.57902 12.9489 1.5 12.75 1.5C12.5511 1.5 12.3603 1.57902 12.2197 1.71967C12.079 1.86032 12 2.05109 12 2.25V3H6V2.25C6 2.05109 5.92098 1.86032 5.78033 1.71967C5.63968 1.57902 5.44891 1.5 5.25 1.5C5.05109 1.5 4.86032 1.57902 4.71967 1.71967C4.57902 1.86032 4.5 2.05109 4.5 2.25V3H3.924C3.28112 3 2.66456 3.25539 2.20997 3.70997C1.75538 4.16456 1.5 4.78112 1.5 5.424L1.5 14.076C1.5 14.7189 1.75538 15.3354 2.20997 15.79C2.66456 16.2446 3.28112 16.5 3.924 16.5H14.076C14.7189 16.5 15.3354 16.2446 15.79 15.79C16.2446 15.3354 16.5 14.7189 16.5 14.076V5.424C16.5 4.78112 16.2446 4.16456 15.79 3.70997C15.3354 3.25539 14.7189 3 14.076 3ZM15 14.076C15 14.3211 14.9027 14.5561 14.7294 14.7294C14.5561 14.9027 14.3211 15 14.076 15H3.924C3.67894 15 3.44392 14.9027 3.27063 14.7294C3.09735 14.5561 3 14.3211 3 14.076V5.424C3 5.17894 3.09735 4.94392 3.27063 4.77063C3.44392 4.59735 3.67894 4.5 3.924 4.5H4.5V5.25C4.5 5.44891 4.57902 5.63968 4.71967 5.78033C4.86032 5.92098 5.05109 6 5.25 6C5.44891 6 5.63968 5.92098 5.78033 5.78033C5.92098 5.63968 6 5.44891 6 5.25V4.5H12V5.25C12 5.44891 12.079 5.63968 12.2197 5.78033C12.3603 5.92098 12.5511 6 12.75 6C12.9489 6 13.1397 5.92098 13.2803 5.78033C13.421 5.63968 13.5 5.44891 13.5 5.25V4.5H14.076C14.3211 4.5 14.5561 4.59735 14.7294 4.77063C14.9027 4.94392 15 5.17894 15 5.424V14.076Z" fill="#33447C"/>
<path d="M9 9.89999C9.41421 9.89999 9.75 9.56421 9.75 9.14999C9.75 8.73578 9.41421 8.39999 9 8.39999C8.58579 8.39999 8.25 8.73578 8.25 9.14999C8.25 9.56421 8.58579 9.89999 9 9.89999Z" fill="#33447C"/>
<path d="M9 12.6C9.41421 12.6 9.75 12.2642 9.75 11.85C9.75 11.4358 9.41421 11.1 9 11.1C8.58579 11.1 8.25 11.4358 8.25 11.85C8.25 12.2642 8.58579 12.6 9 12.6Z" fill="#33447C"/>
<path d="M6.30005 12.6C6.71426 12.6 7.05005 12.2642 7.05005 11.85C7.05005 11.4358 6.71426 11.1 6.30005 11.1C5.88584 11.1 5.55005 11.4358 5.55005 11.85C5.55005 12.2642 5.88584 12.6 6.30005 12.6Z" fill="#33447C"/>
<path d="M11.7 9.89999C12.1142 9.89999 12.45 9.56421 12.45 9.14999C12.45 8.73578 12.1142 8.39999 11.7 8.39999C11.2857 8.39999 10.95 8.73578 10.95 9.14999C10.95 9.56421 11.2857 9.89999 11.7 9.89999Z" fill="#33447C"/>
<path d="M11.7 12.6C12.1142 12.6 12.45 12.2642 12.45 11.85C12.45 11.4358 12.1142 11.1 11.7 11.1C11.2857 11.1 10.95 11.4358 10.95 11.85C10.95 12.2642 11.2857 12.6 11.7 12.6Z" fill="#33447C"/>
</svg>
