<svg width="32" height="30" viewBox="0 0 32 30" fill="none" xmlns="http://www.w3.org/2000/svg">
<path d="M18.2768 29.8029C18.2768 29.7171 18.2682 14.2756 18.2682 14.2756C18.2682 14.2756 27.504 5.52908 27.5812 5.46899C27.6842 5.58916 29.3322 8.00109 29.8472 9.22852C30.3966 10.516 30.7571 11.8636 30.9287 13.2541C31.0489 14.1983 31.0661 15.1511 30.9974 16.1038C30.8944 17.7432 30.5082 19.314 29.873 20.8161C29.2893 22.198 28.4911 23.4426 27.5211 24.5842C26.9375 25.2623 26.3109 25.8889 25.6242 26.4554C24.62 27.2794 23.5385 27.9918 22.3539 28.5497C21.1351 29.1248 18.4056 29.8115 18.3455 29.8201C18.3283 29.8201 18.3198 29.8115 18.2768 29.8029Z" fill="#1D2951"/>
<path d="M25.5557 3.44299C24.5086 4.41292 23.4872 5.35709 22.4743 6.30126C22.1825 6.12101 21.9164 5.94934 21.6417 5.78626C20.5001 5.10817 19.2641 4.65325 17.9509 4.43867C16.7835 4.24125 15.6076 4.23266 14.4317 4.41292C12.9553 4.6275 11.5734 5.09959 10.2945 5.86351C8.83531 6.73901 7.60788 7.87202 6.65512 9.28828C5.89979 10.4127 5.36762 11.6487 5.05003 12.9706C4.78395 14.0606 4.71528 15.1593 4.80111 16.2752C4.92128 17.8974 5.3762 19.4167 6.16587 20.8415C6.17446 20.8501 4.23461 22.7299 3.23035 23.6655C3.07585 23.4423 2.92993 23.2449 2.7926 23.0389C1.87418 21.6226 1.23901 20.0862 0.878504 18.4382C0.638169 17.3138 0.535169 16.1722 0.543752 15.022C0.552336 13.4341 0.835587 11.889 1.34201 10.387C2.00293 8.44711 3.02435 6.70468 4.38053 5.16825C5.86545 3.49449 7.64222 2.22415 9.67648 1.31431C10.758 0.833641 11.891 0.490306 13.0498 0.267138C13.5133 0.181304 15.6248 -0.0161149 16.217 0.00105189C16.938 0.0182187 17.6562 0.0840249 18.3715 0.19847C19.7276 0.404472 21.0323 0.807891 22.2769 1.38298C23.3241 1.86365 24.2854 2.47307 25.2038 3.16832C25.3154 3.25416 25.4184 3.33999 25.5557 3.44299Z" fill="#1D2951"/>
<path d="M16.2258 29.9998L13.7967 29.9483V18.2835C13.7967 18.2835 16.2172 15.9917 16.2258 15.9917C16.2258 16.0003 16.2258 29.9998 16.2258 29.9998Z" fill="#1D2951"/>
<path d="M11.6848 20.1719V29.5278L9.24713 28.6179L9.27288 22.4465L11.6848 20.1719Z" fill="#1D2951"/>
<path d="M7.01555 27.3907L5.28171 26.0346L7.06705 24.3694L7.01555 27.3907Z" fill="#1D2951"/>
</svg>
