<svg width="141" height="30" viewBox="0 0 141 30" fill="none" xmlns="http://www.w3.org/2000/svg">
<path d="M20.2768 29.8028C20.2768 29.717 20.2682 14.2755 20.2682 14.2755C20.2682 14.2755 29.504 5.529 29.5812 5.46892C29.6842 5.58909 31.3322 8.00102 31.8472 9.22844C32.3966 10.5159 32.7571 11.8635 32.9287 13.2541C33.0489 14.1982 33.0661 15.151 32.9974 16.1037C32.8944 17.7432 32.5081 19.3139 31.873 20.816C31.2893 22.1979 30.4911 23.4425 29.5211 24.5841C28.9375 25.2622 28.3109 25.8888 27.6242 26.4553C26.6199 27.2793 25.5384 27.9917 24.3539 28.5497C23.1351 29.1247 20.4056 29.8114 20.3455 29.82C20.3283 29.82 20.3197 29.8114 20.2768 29.8028Z" fill="#1D2951"/>
<path d="M27.5557 3.44299C26.5086 4.41292 25.4871 5.35709 24.4743 6.30126C24.1825 6.12101 23.9164 5.94934 23.6417 5.78626C22.5001 5.10817 21.2641 4.65325 19.9509 4.43867C18.7835 4.24125 17.6076 4.23266 16.4317 4.41292C14.9553 4.6275 13.5734 5.09959 12.2945 5.86351C10.8353 6.73901 9.60787 7.87202 8.65512 9.28828C7.89978 10.4127 7.36761 11.6487 7.05002 12.9706C6.78394 14.0606 6.71527 15.1593 6.80111 16.2752C6.92127 17.8974 7.37619 19.4167 8.16587 20.8415C8.17445 20.8501 6.2346 22.7299 5.23034 23.6655C5.07584 23.4423 4.92993 23.2449 4.79259 23.0389C3.87417 21.6226 3.239 20.0862 2.8785 18.4382C2.63816 17.3138 2.53516 16.1722 2.54374 15.022C2.55233 13.4341 2.83558 11.889 3.342 10.387C4.00292 8.44711 5.02434 6.70468 6.38052 5.16825C7.86545 3.49449 9.64221 2.22415 11.6765 1.31431C12.758 0.833641 13.891 0.490306 15.0497 0.267138C15.5132 0.181304 17.6248 -0.0161149 18.217 0.00105189C18.938 0.0182187 19.6562 0.0840249 20.3714 0.19847C21.7276 0.404472 23.0323 0.807891 24.2769 1.38298C25.3241 1.86365 26.2854 2.47307 27.2038 3.16832C27.3154 3.25416 27.4184 3.33999 27.5557 3.44299Z" fill="#1D2951"/>
<path d="M18.2258 29.9999L15.7967 29.9484V18.2836C15.7967 18.2836 18.2172 15.9918 18.2258 15.9918C18.2258 16.0004 18.2258 29.9999 18.2258 29.9999Z" fill="#1D2951"/>
<path d="M13.6848 20.1719V29.5278L11.2471 28.618L11.2729 22.4465L13.6848 20.1719Z" fill="#1D2951"/>
<path d="M9.01555 27.3908L7.2817 26.0346L9.06705 24.3694L9.01555 27.3908Z" fill="#1D2951"/>
<path d="M52.9775 12.48C52.9775 13.2933 52.7909 14.04 52.4175 14.72C52.0442 15.3867 51.4709 15.9267 50.6975 16.34C49.9242 16.7533 48.9642 16.96 47.8175 16.96H45.6975V22H42.2775V7.96H47.8175C48.9375 7.96 49.8842 8.15333 50.6575 8.54C51.4309 8.92667 52.0109 9.46 52.3975 10.14C52.7842 10.82 52.9775 11.6 52.9775 12.48ZM47.5575 14.24C48.2109 14.24 48.6975 14.0867 49.0175 13.78C49.3375 13.4733 49.4975 13.04 49.4975 12.48C49.4975 11.92 49.3375 11.4867 49.0175 11.18C48.6975 10.8733 48.2109 10.72 47.5575 10.72H45.6975V14.24H47.5575ZM58.178 12.7C58.578 12.0867 59.078 11.6067 59.678 11.26C60.278 10.9 60.9447 10.72 61.678 10.72V14.34H60.738C59.8847 14.34 59.2447 14.5267 58.818 14.9C58.3913 15.26 58.178 15.9 58.178 16.82V22H54.758V10.84H58.178V12.7ZM68.3927 22.16C67.2994 22.16 66.3127 21.9267 65.4327 21.46C64.566 20.9933 63.8794 20.3267 63.3727 19.46C62.8794 18.5933 62.6327 17.58 62.6327 16.42C62.6327 15.2733 62.886 14.2667 63.3927 13.4C63.8994 12.52 64.5927 11.8467 65.4727 11.38C66.3527 10.9133 67.3394 10.68 68.4327 10.68C69.526 10.68 70.5127 10.9133 71.3927 11.38C72.2727 11.8467 72.966 12.52 73.4727 13.4C73.9794 14.2667 74.2327 15.2733 74.2327 16.42C74.2327 17.5667 73.9727 18.58 73.4527 19.46C72.946 20.3267 72.246 20.9933 71.3527 21.46C70.4727 21.9267 69.486 22.16 68.3927 22.16ZM68.3927 19.2C69.046 19.2 69.5994 18.96 70.0527 18.48C70.5194 18 70.7527 17.3133 70.7527 16.42C70.7527 15.5267 70.526 14.84 70.0727 14.36C69.6327 13.88 69.086 13.64 68.4327 13.64C67.766 13.64 67.2127 13.88 66.7727 14.36C66.3327 14.8267 66.1127 15.5133 66.1127 16.42C66.1127 17.3133 66.326 18 66.7527 18.48C67.1927 18.96 67.7394 19.2 68.3927 19.2ZM77.7471 9.68C77.1471 9.68 76.6537 9.50667 76.2671 9.16C75.8937 8.8 75.7071 8.36 75.7071 7.84C75.7071 7.30667 75.8937 6.86667 76.2671 6.52C76.6537 6.16 77.1471 5.98 77.7471 5.98C78.3337 5.98 78.8137 6.16 79.1871 6.52C79.5737 6.86667 79.7671 7.30667 79.7671 7.84C79.7671 8.36 79.5737 8.8 79.1871 9.16C78.8137 9.50667 78.3337 9.68 77.7471 9.68ZM79.4671 23.44C79.4671 24.8133 79.1204 25.8 78.4271 26.4C77.7337 27.0133 76.7671 27.32 75.5271 27.32H74.1871V24.42H75.0071C75.3804 24.42 75.6471 24.3467 75.8071 24.2C75.9671 24.0533 76.0471 23.8133 76.0471 23.48V10.84H79.4671V23.44ZM92.446 16.24C92.446 16.56 92.426 16.8933 92.386 17.24H84.646C84.6993 17.9333 84.9193 18.4667 85.306 18.84C85.706 19.2 86.1926 19.38 86.766 19.38C87.6193 19.38 88.2126 19.02 88.546 18.3H92.186C91.9993 19.0333 91.6593 19.6933 91.166 20.28C90.686 20.8667 90.0793 21.3267 89.346 21.66C88.6126 21.9933 87.7926 22.16 86.886 22.16C85.7926 22.16 84.8193 21.9267 83.966 21.46C83.1126 20.9933 82.446 20.3267 81.966 19.46C81.486 18.5933 81.246 17.58 81.246 16.42C81.246 15.26 81.4793 14.2467 81.946 13.38C82.426 12.5133 83.0926 11.8467 83.946 11.38C84.7993 10.9133 85.7793 10.68 86.886 10.68C87.966 10.68 88.926 10.9067 89.766 11.36C90.606 11.8133 91.2593 12.46 91.726 13.3C92.206 14.14 92.446 15.12 92.446 16.24ZM88.946 15.34C88.946 14.7533 88.746 14.2867 88.346 13.94C87.946 13.5933 87.446 13.42 86.846 13.42C86.2726 13.42 85.786 13.5867 85.386 13.92C84.9993 14.2533 84.7593 14.7267 84.666 15.34H88.946ZM93.5702 16.42C93.5702 15.26 93.8035 14.2467 94.2702 13.38C94.7502 12.5133 95.4102 11.8467 96.2502 11.38C97.1035 10.9133 98.0769 10.68 99.1702 10.68C100.57 10.68 101.737 11.0467 102.67 11.78C103.617 12.5133 104.237 13.5467 104.53 14.88H100.89C100.584 14.0267 99.9902 13.6 99.1102 13.6C98.4835 13.6 97.9835 13.8467 97.6102 14.34C97.2369 14.82 97.0502 15.5133 97.0502 16.42C97.0502 17.3267 97.2369 18.0267 97.6102 18.52C97.9835 19 98.4835 19.24 99.1102 19.24C99.9902 19.24 100.584 18.8133 100.89 17.96H104.53C104.237 19.2667 103.617 20.2933 102.67 21.04C101.724 21.7867 100.557 22.16 99.1702 22.16C98.0769 22.16 97.1035 21.9267 96.2502 21.46C95.4102 20.9933 94.7502 20.3267 94.2702 19.46C93.8035 18.5933 93.5702 17.58 93.5702 16.42ZM112.58 19.1V22H110.84C109.6 22 108.633 21.7 107.94 21.1C107.246 20.4867 106.9 19.4933 106.9 18.12V13.68H105.54V10.84H106.9V8.12H110.32V10.84H112.56V13.68H110.32V18.16C110.32 18.4933 110.4 18.7333 110.56 18.88C110.72 19.0267 110.986 19.1 111.36 19.1H112.58ZM116.205 9.68C115.605 9.68 115.111 9.50667 114.725 9.16C114.351 8.8 114.165 8.36 114.165 7.84C114.165 7.30667 114.351 6.86667 114.725 6.52C115.111 6.16 115.605 5.98 116.205 5.98C116.791 5.98 117.271 6.16 117.645 6.52C118.031 6.86667 118.225 7.30667 118.225 7.84C118.225 8.36 118.031 8.8 117.645 9.16C117.271 9.50667 116.791 9.68 116.205 9.68ZM117.905 10.84V22H114.485V10.84H117.905ZM125.983 13.68H124.143V22H120.723V13.68H119.483V10.84H120.723V10.52C120.723 9.14667 121.116 8.10667 121.903 7.4C122.69 6.68 123.843 6.32 125.363 6.32C125.616 6.32 125.803 6.32667 125.923 6.34V9.24C125.27 9.2 124.81 9.29333 124.543 9.52C124.276 9.74667 124.143 10.1533 124.143 10.74V10.84H125.983V13.68ZM138.99 10.84L131.99 27.3H128.31L130.87 21.62L126.33 10.84H130.15L132.73 17.82L135.29 10.84H138.99Z" fill="#1D2951"/>
</svg>
