<svg width="18" height="18" viewBox="0 0 18 18" fill="none" xmlns="http://www.w3.org/2000/svg">
<path d="M14.3324 11.5818C14.3319 11.7036 14.2821 11.8201 14.1939 11.9062C14.1057 11.9922 13.9861 12.0407 13.8616 12.0411H13.5479L13.4733 11.6611C13.4434 11.477 13.3954 11.2962 13.3301 11.1211H13.8616C13.9864 11.1214 14.1064 11.1702 14.1946 11.2565C14.2828 11.3428 14.3323 11.4598 14.3324 11.5818Z" fill="#33447C"/>
<path d="M4.71908 11.1211C4.65403 11.2963 4.60611 11.4771 4.57588 11.6611L4.50062 12.0411H4.13232C4.00751 12.0411 3.88823 11.9926 3.79997 11.9063C3.71172 11.8201 3.66211 11.7031 3.66211 11.5812C3.66211 11.4592 3.71172 11.3421 3.79997 11.2558C3.88823 11.1696 4.00751 11.1211 4.13232 11.1211H4.71908Z" fill="#33447C"/>
<path d="M11.6371 12.2021C11.6375 12.2871 11.6202 12.3714 11.5871 12.4501C11.554 12.5288 11.5054 12.6003 11.4439 12.6605C11.3824 12.7207 11.3093 12.7684 11.2288 12.8008C11.1483 12.8332 11.0621 12.8496 10.975 12.8493H9.99933C9.82289 12.8493 9.65389 12.7808 9.52913 12.6589C9.40436 12.5369 9.33398 12.3716 9.33398 12.1991C9.33398 12.0267 9.40436 11.8612 9.52913 11.7392C9.65389 11.6173 9.82289 11.5488 9.99933 11.5488H10.975C11.0624 11.5492 11.1489 11.5664 11.2295 11.5994C11.31 11.6325 11.3831 11.6807 11.4446 11.7414C11.506 11.802 11.5548 11.874 11.5878 11.9531C11.6208 12.0321 11.6376 12.1167 11.6371 12.2021Z" fill="#33447C"/>
<path d="M16.4748 12.1883L16.2497 11.1577C16.1931 10.8858 16.0792 10.6283 15.916 10.4013C15.7527 10.1743 15.5432 9.9826 15.3006 9.83852L13.9646 9.02872C14.1718 8.75536 14.3017 8.43343 14.3415 8.09541L14.4481 7.12027C14.5026 6.62107 14.3522 6.12113 14.0298 5.7303C13.7075 5.33947 13.2398 5.08976 12.7291 5.03588C12.6609 5.02922 12.5928 5.02921 12.5246 5.02921H12.3115C12.0277 5.03059 11.7475 5.09117 11.4896 5.20709C11.4113 4.72579 11.2129 4.27095 10.9115 3.8827C10.7077 3.6136 10.443 3.39391 10.1383 3.24086C9.83362 3.0878 9.4971 3.00535 9.15459 3H8.89151C8.54917 3.00625 8.21233 3.08918 7.9078 3.24216C7.60327 3.39514 7.33902 3.61426 7.13456 3.8827C6.82772 4.27646 6.63086 4.74131 6.56312 5.23182C6.29251 5.09964 5.99381 5.03113 5.6913 5.03182H5.47218C5.40876 5.03182 5.33993 5.03182 5.27104 5.03849C5.01798 5.06466 4.77255 5.13936 4.54908 5.25835C4.32561 5.37734 4.1287 5.53829 3.96898 5.73193C3.80926 5.92556 3.69022 6.1481 3.61866 6.38679C3.54709 6.62548 3.52453 6.8756 3.55206 7.12287L3.65196 8.09817C3.6909 8.43629 3.82129 8.75822 4.02892 9.03133L2.69156 9.84129C2.4499 9.98633 2.24175 10.1781 2.07883 10.405C1.91591 10.6319 1.8019 10.889 1.74449 11.1605L1.5247 12.1909C1.5071 12.2652 1.49922 12.3414 1.50006 12.4176C1.49871 12.5636 1.52649 12.7084 1.58265 12.8437C1.63881 12.979 1.72203 13.102 1.82707 13.2058C1.93212 13.3096 2.05693 13.3921 2.19472 13.4484C2.33251 13.5048 2.48026 13.5339 2.62962 13.5342H4.03492C4.05229 13.8507 4.15885 14.1563 4.34262 14.4174C4.46146 14.592 4.62105 14.736 4.80883 14.8374C4.99661 14.9388 5.2071 14.9946 5.42156 15H12.6252C12.8397 14.9947 13.0495 14.939 13.2373 14.8376C13.4251 14.7362 13.5854 14.592 13.7041 14.4174C13.8879 14.1563 13.9945 13.8507 14.0118 13.5342H15.3672C15.516 13.5349 15.6631 13.5068 15.8008 13.4517C15.9385 13.3965 16.0636 13.3153 16.1691 13.2128C16.2746 13.1102 16.3583 12.9882 16.4155 12.8539C16.4727 12.7197 16.502 12.5758 16.5021 12.4303C16.5026 12.3489 16.4939 12.2676 16.4748 12.1883ZM11.3171 7.66756C11.3427 7.5563 11.3616 7.44361 11.3738 7.3302L11.4677 6.26897C11.4806 6.25097 11.4993 6.23897 11.5116 6.22031C11.6126 6.11184 11.736 6.02518 11.8733 5.96595C12.0106 5.90671 12.1588 5.87631 12.3088 5.87644H12.522C12.8052 5.87872 13.0762 5.99014 13.2759 6.18646C13.4756 6.38278 13.5882 6.64814 13.5889 6.92498C13.5889 6.96164 13.5829 6.99162 13.5829 7.02962L13.4757 8.00411C13.4461 8.25876 13.3216 8.49382 13.126 8.66451C12.9304 8.8352 12.6776 8.92961 12.4154 8.92961C12.1532 8.92961 11.8997 8.8352 11.7041 8.66451C11.5085 8.49382 11.384 8.25876 11.3544 8.00411L11.3171 7.67082V7.66756ZM7.92246 4.67525C8.03563 4.52878 8.18124 4.40939 8.34871 4.32634C8.51617 4.24328 8.70108 4.19876 8.88885 4.19598H9.15192C9.34082 4.19966 9.52644 4.24584 9.69406 4.33105C9.86168 4.41627 10.0068 4.53808 10.1183 4.68713C10.3706 5.01055 10.4871 5.41587 10.4447 5.82046L10.3188 7.20017C10.3188 7.53607 10.1822 7.85821 9.93915 8.09573C9.69614 8.33325 9.36638 8.46678 9.02271 8.46678C8.67905 8.46678 8.34995 8.33325 8.10694 8.09573C7.86393 7.85821 7.72731 7.53607 7.72731 7.20017L7.59544 5.82046C7.54859 5.41158 7.66653 5.00091 7.92379 4.67525H7.92246ZM5.46685 5.87514H5.68064C5.83061 5.8751 5.97838 5.90558 6.11555 5.96481C6.25272 6.02404 6.37625 6.11063 6.4772 6.21901C6.51401 6.25903 6.54718 6.30175 6.5771 6.34692L6.67168 7.32825C6.67479 7.37546 6.6805 7.4224 6.68966 7.46886L6.63371 8.00216C6.60417 8.25596 6.48035 8.49017 6.28539 8.66028C6.09042 8.83038 5.83809 8.92441 5.57675 8.92441C5.3154 8.92441 5.06307 8.83038 4.8681 8.66028C4.67314 8.49017 4.54932 8.25596 4.51978 8.00216L4.41322 7.0275C4.40836 6.99283 4.40645 6.95785 4.40722 6.92286C4.40703 6.64686 4.51814 6.38201 4.71692 6.18597C4.9157 5.98994 5.18581 5.87873 5.46819 5.87644L5.46685 5.87514ZM4.4625 11.1491C4.4027 11.3102 4.35838 11.4765 4.33063 11.6458L4.2627 11.995L4.13615 12.6702H2.63096C2.59125 12.6711 2.55202 12.6625 2.5164 12.6453C2.48078 12.6281 2.44996 12.6029 2.42649 12.5716C2.40225 12.543 2.38498 12.5095 2.37521 12.4736C2.36543 12.4377 2.36339 12.4002 2.36988 12.3636L2.59566 11.3265C2.63045 11.1689 2.6971 11.0197 2.79213 10.888C2.88716 10.7563 3.00898 10.6447 3.14912 10.5598L4.73557 9.59799C4.96992 9.70929 5.2258 9.77165 5.48617 9.78124C5.01177 10.1264 4.65553 10.604 4.4645 11.151L4.4625 11.1491ZM12.9276 13.5288C12.9202 13.571 12.9028 13.611 12.877 13.6455L12.871 13.6574C12.8431 13.6959 12.8062 13.7277 12.7637 13.75C12.7212 13.7723 12.6741 13.7847 12.6259 13.7861H5.41557C5.36514 13.785 5.31611 13.7715 5.27238 13.7469C5.22865 13.7223 5.19216 13.6875 5.16581 13.6455C5.14044 13.61 5.12131 13.5705 5.1092 13.5288C5.09058 13.4714 5.08408 13.4107 5.09055 13.3508L5.22243 12.6702L5.26572 12.4243L5.36629 11.891C5.44106 11.4575 5.68298 11.0688 6.04296 10.8052L6.46388 10.5105L6.60041 10.4119L6.60641 10.4058L7.32904 9.90996L7.98773 9.44322C8.30133 9.61773 8.65585 9.70963 9.01672 9.70963C9.37759 9.70963 9.73211 9.61773 10.0457 9.44322L10.6551 9.86586L11.439 10.4119L11.5143 10.4672L11.9918 10.8005C12.3505 11.0681 12.5925 11.4583 12.6692 11.893L12.813 12.6715L12.9389 13.3521C12.9514 13.4115 12.9483 13.473 12.9296 13.5308L12.9276 13.5288ZM15.569 12.5722C15.5451 12.6031 15.5139 12.628 15.4784 12.6451C15.4429 12.6623 15.4035 12.6711 15.3639 12.6709H13.9019L13.7761 11.9956L13.7075 11.6464C13.68 11.4771 13.6364 11.3107 13.5763 11.1497C13.385 10.603 13.0282 10.1259 12.5533 9.78189C12.7971 9.76458 13.035 9.70245 13.2552 9.59864L14.843 10.5604C14.9831 10.646 15.1043 10.758 15.2 10.8895C15.2957 11.021 15.3644 11.1697 15.4012 11.3271L15.6209 12.3643C15.6305 12.401 15.6311 12.4393 15.6223 12.4762C15.6135 12.5131 15.5961 12.5475 15.571 12.5763L15.569 12.5722Z" fill="#33447C"/>
<path d="M11.6371 12.2021C11.6375 12.2871 11.6202 12.3714 11.5871 12.4501C11.554 12.5288 11.5054 12.6003 11.4439 12.6605C11.3824 12.7207 11.3093 12.7684 11.2288 12.8008C11.1483 12.8332 11.0621 12.8496 10.975 12.8493H9.99933C9.82289 12.8493 9.65389 12.7808 9.52913 12.6589C9.40436 12.5369 9.33398 12.3716 9.33398 12.1991C9.33398 12.0267 9.40436 11.8612 9.52913 11.7392C9.65389 11.6173 9.82289 11.5488 9.99933 11.5488H10.975C11.0624 11.5492 11.1489 11.5664 11.2295 11.5994C11.31 11.6325 11.3831 11.6807 11.4446 11.7414C11.506 11.802 11.5548 11.874 11.5878 11.9531C11.6208 12.0321 11.6376 12.1167 11.6371 12.2021Z" fill="#33447C"/>
</svg>
